<svg id="visual" viewBox="0 0 2000 2000" width="2000" height="2000" xmlns="http://www.w3.org/2000/svg" xmlns:xlink="http://www.w3.org/1999/xlink" version="1.1"><rect x="0" y="0" width="2000" height="2000" fill="#003459"></rect><path d="M0 578L143 722L286 582L429 699L571 721L714 655L857 671L1000 699L1143 547L1286 653L1429 625L1571 641L1714 556L1857 685L2000 620L2000 0L1857 0L1714 0L1571 0L1429 0L1286 0L1143 0L1000 0L857 0L714 0L571 0L429 0L286 0L143 0L0 0Z" fill="#007ea7"></path><path d="M0 435L143 499L286 464L429 589L571 523L714 497L857 423L1000 482L1143 459L1286 453L1429 594L1571 453L1714 561L1857 527L2000 428L2000 0L1857 0L1714 0L1571 0L1429 0L1286 0L1143 0L1000 0L857 0L714 0L571 0L429 0L286 0L143 0L0 0Z" fill="#0088b7"></path><path d="M0 449L143 334L286 299L429 391L571 421L714 330L857 363L1000 312L1143 338L1286 349L1429 428L1571 389L1714 423L1857 337L2000 470L2000 0L1857 0L1714 0L1571 0L1429 0L1286 0L1143 0L1000 0L857 0L714 0L571 0L429 0L286 0L143 0L0 0Z" fill="#0093c7"></path><path d="M0 204L143 300L286 226L429 231L571 241L714 295L857 241L1000 232L1143 271L1286 273L1429 273L1571 233L1714 269L1857 226L2000 306L2000 0L1857 0L1714 0L1571 0L1429 0L1286 0L1143 0L1000 0L857 0L714 0L571 0L429 0L286 0L143 0L0 0Z" fill="#009dd7"></path><path d="M0 126L143 56L286 140L429 59L571 64L714 189L857 131L1000 162L1143 125L1286 131L1429 192L1571 166L1714 206L1857 183L2000 211L2000 0L1857 0L1714 0L1571 0L1429 0L1286 0L1143 0L1000 0L857 0L714 0L571 0L429 0L286 0L143 0L0 0Z" fill="#00a8e8"></path></svg>