<svg id="visual" viewBox="0 0 1440 450" width="1440" height="450" xmlns="http://www.w3.org/2000/svg" xmlns:xlink="http://www.w3.org/1999/xlink" version="1.1"><path d="M0 33L131 33L262 78L393 46L524 37L655 28L785 60L916 42L1047 37L1178 37L1309 33L1440 42L1440 0L1309 0L1178 0L1047 0L916 0L785 0L655 0L524 0L393 0L262 0L131 0L0 0Z" fill="#00a8e8"></path><path d="M0 150L131 118L262 240L393 145L524 177L655 105L785 181L916 226L1047 145L1178 231L1309 136L1440 231L1440 40L1309 31L1178 35L1047 35L916 40L785 58L655 26L524 35L393 44L262 76L131 31L0 31Z" fill="#71bdee"></path><path d="M0 253L131 226L262 294L393 213L524 253L655 208L785 249L916 303L1047 276L1178 325L1309 244L1440 334L1440 229L1309 134L1178 229L1047 143L916 224L785 179L655 103L524 175L393 143L262 238L131 116L0 148Z" fill="#a6d3f4"></path><path d="M0 406L131 352L262 397L393 406L524 384L655 393L785 366L916 375L1047 411L1178 402L1309 370L1440 393L1440 332L1309 242L1178 323L1047 274L916 301L785 247L655 206L524 251L393 211L262 292L131 224L0 251Z" fill="#d4e9fa"></path><path d="M0 451L131 451L262 451L393 451L524 451L655 451L785 451L916 451L1047 451L1178 451L1309 451L1440 451L1440 391L1309 368L1178 400L1047 409L916 373L785 364L655 391L524 382L393 404L262 395L131 350L0 404Z" fill="#ffffff"></path></svg>