<svg id="visual" viewBox="0 0 1440 450" width="1440" height="450" xmlns="http://www.w3.org/2000/svg" xmlns:xlink="http://www.w3.org/1999/xlink" version="1.1"><path d="M0 136L131 114L262 91L393 87L524 190L655 159L785 204L916 105L1047 150L1178 114L1309 123L1440 105L1440 0L1309 0L1178 0L1047 0L916 0L785 0L655 0L524 0L393 0L262 0L131 0L0 0Z" fill="#ffffff"></path><path d="M0 208L131 159L262 163L393 159L524 267L655 204L785 253L916 141L1047 231L1178 195L1309 154L1440 150L1440 103L1309 121L1178 112L1047 148L916 103L785 202L655 157L524 188L393 85L262 89L131 112L0 134Z" fill="#c1c7d3"></path><path d="M0 235L131 186L262 199L393 199L524 321L655 235L785 312L916 195L1047 280L1178 222L1309 222L1440 190L1440 148L1309 152L1178 193L1047 229L916 139L785 251L655 202L524 265L393 157L262 161L131 157L0 206Z" fill="#8592a9"></path><path d="M0 348L131 325L262 366L393 370L524 379L655 316L785 406L916 357L1047 384L1178 388L1309 330L1440 339L1440 188L1309 220L1178 220L1047 278L916 193L785 310L655 233L524 319L393 197L262 197L131 184L0 233Z" fill="#4b6180"></path><path d="M0 451L131 451L262 451L393 451L524 451L655 451L785 451L916 451L1047 451L1178 451L1309 451L1440 451L1440 337L1309 328L1178 386L1047 382L916 355L785 404L655 314L524 377L393 368L262 364L131 323L0 346Z" fill="#003459"></path></svg>