<?xml version="1.0" standalone="no"?><svg xmlns="http://www.w3.org/2000/svg" viewBox="0 0 1440 320"><path fill="#ffffff" fill-opacity="0.67" d="M0,128L0,192L36.9,192L36.9,64L73.8,64L73.8,256L110.8,256L110.8,224L147.7,224L147.7,128L184.6,128L184.6,32L221.5,32L221.5,224L258.5,224L258.5,96L295.4,96L295.4,160L332.3,160L332.3,128L369.2,128L369.2,224L406.2,224L406.2,288L443.1,288L443.1,128L480,128L480,160L516.9,160L516.9,160L553.8,160L553.8,96L590.8,96L590.8,64L627.7,64L627.7,224L664.6,224L664.6,64L701.5,64L701.5,224L738.5,224L738.5,0L775.4,0L775.4,288L812.3,288L812.3,192L849.2,192L849.2,224L886.2,224L886.2,320L923.1,320L923.1,32L960,32L960,224L996.9,224L996.9,320L1033.8,320L1033.8,32L1070.8,32L1070.8,288L1107.7,288L1107.7,224L1144.6,224L1144.6,256L1181.5,256L1181.5,64L1218.5,64L1218.5,256L1255.4,256L1255.4,128L1292.3,128L1292.3,256L1329.2,256L1329.2,32L1366.2,32L1366.2,192L1403.1,192L1403.1,128L1440,128L1440,320L1403.1,320L1403.1,320L1366.2,320L1366.2,320L1329.2,320L1329.2,320L1292.3,320L1292.3,320L1255.4,320L1255.4,320L1218.5,320L1218.5,320L1181.5,320L1181.5,320L1144.6,320L1144.6,320L1107.7,320L1107.7,320L1070.8,320L1070.8,320L1033.8,320L1033.8,320L996.9,320L996.9,320L960,320L960,320L923.1,320L923.1,320L886.2,320L886.2,320L849.2,320L849.2,320L812.3,320L812.3,320L775.4,320L775.4,320L738.5,320L738.5,320L701.5,320L701.5,320L664.6,320L664.6,320L627.7,320L627.7,320L590.8,320L590.8,320L553.8,320L553.8,320L516.9,320L516.9,320L480,320L480,320L443.1,320L443.1,320L406.2,320L406.2,320L369.2,320L369.2,320L332.3,320L332.3,320L295.4,320L295.4,320L258.5,320L258.5,320L221.5,320L221.5,320L184.6,320L184.6,320L147.7,320L147.7,320L110.8,320L110.8,320L73.8,320L73.8,320L36.9,320L36.9,320L0,320L0,320Z"></path></svg>