<svg id="visual" viewBox="0 0 2000 2000" width="2000" height="2000" xmlns="http://www.w3.org/2000/svg" xmlns:xlink="http://www.w3.org/1999/xlink" version="1.1"><rect x="0" y="0" width="2000" height="2000" fill="#003459"></rect><path d="M1371 2000L1289 1714L1326 1429L1241 1143L1341 857L1180 571L1280 286L1201 0L2000 0L2000 286L2000 571L2000 857L2000 1143L2000 1429L2000 1714L2000 2000Z" fill="#007ea7"></path><path d="M1319 2000L1319 1714L1511 1429L1528 1143L1502 857L1547 571L1408 286L1501 0L2000 0L2000 286L2000 571L2000 857L2000 1143L2000 1429L2000 1714L2000 2000Z" fill="#0088b7"></path><path d="M1467 2000L1626 1714L1611 1429L1545 1143L1640 857L1694 571L1479 286L1622 0L2000 0L2000 286L2000 571L2000 857L2000 1143L2000 1429L2000 1714L2000 2000Z" fill="#0093c7"></path><path d="M1713 2000L1755 1714L1669 1429L1712 1143L1698 857L1775 571L1811 286L1757 0L2000 0L2000 286L2000 571L2000 857L2000 1143L2000 1429L2000 1714L2000 2000Z" fill="#009dd7"></path><path d="M1788 2000L1822 1714L1811 1429L1891 1143L1778 857L1754 571L1837 286L1796 0L2000 0L2000 286L2000 571L2000 857L2000 1143L2000 1429L2000 1714L2000 2000Z" fill="#00a8e8"></path></svg>