<svg id="visual" viewBox="0 0 2000 2000" width="2000" height="2000" xmlns="http://www.w3.org/2000/svg" xmlns:xlink="http://www.w3.org/1999/xlink" version="1.1"><g stroke-width="1" stroke-linejoin="bevel"><path d="M1020 1018L1034 1071.1L1092.1 965Z" fill="#022642" stroke="#022642"></path><path d="M1034 1071.1L1126.1 1128.1L1092.1 965Z" fill="#03182c" stroke="#03182c"></path><path d="M1126.1 1128.1L1194.2 1004L1092.1 965Z" fill="#003459" stroke="#003459"></path><path d="M1126.1 1128.1L1189.2 1108.1L1194.2 1004Z" fill="#021527" stroke="#021527"></path><path d="M1223.2 861.9L1073.1 880.9L1092.1 965Z" fill="#013053" stroke="#013053"></path><path d="M1092.1 965L1073.1 880.9L1020 1018Z" fill="#021f37" stroke="#021f37"></path><path d="M1014 1250.2L1135.1 1183.2L1126.1 1128.1Z" fill="#012d4d" stroke="#012d4d"></path><path d="M1126.1 1128.1L1135.1 1183.2L1189.2 1108.1Z" fill="#021f37" stroke="#021f37"></path><path d="M1029 852.9L916.9 961L1020 1018Z" fill="#02223c" stroke="#02223c"></path><path d="M1020 1018L894.9 1076.1L1034 1071.1Z" fill="#021527" stroke="#021527"></path><path d="M1034 1071.1L1014 1250.2L1126.1 1128.1Z" fill="#021f37" stroke="#021f37"></path><path d="M1073.1 880.9L1029 852.9L1020 1018Z" fill="#03182c" stroke="#03182c"></path><path d="M916.9 961L894.9 1076.1L1020 1018Z" fill="#03182c" stroke="#03182c"></path><path d="M1310.3 881.9L1223.2 861.9L1194.2 1004Z" fill="#021b31" stroke="#021b31"></path><path d="M1194.2 1004L1223.2 861.9L1092.1 965Z" fill="#03182c" stroke="#03182c"></path><path d="M1073.1 880.9L1141.1 743.8L1029 852.9Z" fill="#012947" stroke="#012947"></path><path d="M894.9 1076.1L1014 1250.2L1034 1071.1Z" fill="#021f37" stroke="#021f37"></path><path d="M1029 852.9L895.9 861.9L916.9 961Z" fill="#003459" stroke="#003459"></path><path d="M916.9 961L807.8 1003L894.9 1076.1Z" fill="#021527" stroke="#021527"></path><path d="M1135.1 1302.3L1188.2 1260.2L1135.1 1183.2Z" fill="#001122" stroke="#001122"></path><path d="M1135.1 1183.2L1188.2 1260.2L1189.2 1108.1Z" fill="#03182c" stroke="#03182c"></path><path d="M1368.3 1000L1310.3 881.9L1194.2 1004Z" fill="#021b31" stroke="#021b31"></path><path d="M1351.3 1099.1L1194.2 1004L1189.2 1108.1Z" fill="#022642" stroke="#022642"></path><path d="M1330.3 1206.2L1351.3 1099.1L1189.2 1108.1Z" fill="#013053" stroke="#013053"></path><path d="M771.8 894.9L807.8 1003L916.9 961Z" fill="#012947" stroke="#012947"></path><path d="M889.9 1242.2L1007 1298.3L1014 1250.2Z" fill="#022642" stroke="#022642"></path><path d="M1014 1250.2L1135.1 1302.3L1135.1 1183.2Z" fill="#02223c" stroke="#02223c"></path><path d="M889.9 1242.2L1014 1250.2L894.9 1076.1Z" fill="#03182c" stroke="#03182c"></path><path d="M1014 1250.2L1007 1298.3L1135.1 1302.3Z" fill="#012947" stroke="#012947"></path><path d="M1351.3 1099.1L1368.3 1000L1194.2 1004Z" fill="#012947" stroke="#012947"></path><path d="M766.8 1243.2L889.9 1242.2L894.9 1076.1Z" fill="#022642" stroke="#022642"></path><path d="M1225.2 749.8L1141.1 743.8L1223.2 861.9Z" fill="#012d4d" stroke="#012d4d"></path><path d="M1223.2 861.9L1141.1 743.8L1073.1 880.9Z" fill="#012d4d" stroke="#012d4d"></path><path d="M979 741.8L873.9 812.8L895.9 861.9Z" fill="#021527" stroke="#021527"></path><path d="M979 741.8L895.9 861.9L1029 852.9Z" fill="#012d4d" stroke="#012d4d"></path><path d="M895.9 861.9L771.8 894.9L916.9 961Z" fill="#02223c" stroke="#02223c"></path><path d="M1250.2 1336.3L1330.3 1206.2L1188.2 1260.2Z" fill="#013053" stroke="#013053"></path><path d="M1188.2 1260.2L1330.3 1206.2L1189.2 1108.1Z" fill="#012947" stroke="#012947"></path><path d="M1077.1 700.7L979 741.8L1029 852.9Z" fill="#02223c" stroke="#02223c"></path><path d="M1310.3 881.9L1225.2 749.8L1223.2 861.9Z" fill="#021b31" stroke="#021b31"></path><path d="M1351.3 1099.1L1411.4 1011L1368.3 1000Z" fill="#013053" stroke="#013053"></path><path d="M1368.3 1000L1440.4 886.9L1310.3 881.9Z" fill="#012947" stroke="#012947"></path><path d="M1310.3 881.9L1342.3 742.8L1225.2 749.8Z" fill="#001122" stroke="#001122"></path><path d="M1461.4 1094.1L1411.4 1011L1351.3 1099.1Z" fill="#021b31" stroke="#021b31"></path><path d="M1192.2 646.7L1077.1 700.7L1141.1 743.8Z" fill="#021b31" stroke="#021b31"></path><path d="M1141.1 743.8L1077.1 700.7L1029 852.9Z" fill="#022642" stroke="#022642"></path><path d="M873.9 812.8L771.8 894.9L895.9 861.9Z" fill="#03182c" stroke="#03182c"></path><path d="M675.7 989L739.8 1081.1L807.8 1003Z" fill="#012947" stroke="#012947"></path><path d="M807.8 1003L739.8 1081.1L894.9 1076.1Z" fill="#013053" stroke="#013053"></path><path d="M1293.3 1420.4L1250.2 1336.3L1218.2 1461.4Z" fill="#021f37" stroke="#021f37"></path><path d="M1135.1 1302.3L1250.2 1336.3L1188.2 1260.2Z" fill="#03182c" stroke="#03182c"></path><path d="M974 659.7L921.9 693.7L979 741.8Z" fill="#003459" stroke="#003459"></path><path d="M979 741.8L921.9 693.7L873.9 812.8Z" fill="#022642" stroke="#022642"></path><path d="M873.9 812.8L812.8 761.8L771.8 894.9Z" fill="#021527" stroke="#021527"></path><path d="M1250.2 1336.3L1351.3 1298.3L1330.3 1206.2Z" fill="#012d4d" stroke="#012d4d"></path><path d="M1330.3 1206.2L1461.4 1094.1L1351.3 1099.1Z" fill="#021f37" stroke="#021f37"></path><path d="M766.8 1243.2L876.9 1347.3L889.9 1242.2Z" fill="#001122" stroke="#001122"></path><path d="M889.9 1242.2L876.9 1347.3L1007 1298.3Z" fill="#021527" stroke="#021527"></path><path d="M1007 1298.3L1094.1 1474.4L1135.1 1302.3Z" fill="#001122" stroke="#001122"></path><path d="M921.9 693.7L812.8 761.8L873.9 812.8Z" fill="#02223c" stroke="#02223c"></path><path d="M739.8 1081.1L766.8 1243.2L894.9 1076.1Z" fill="#001122" stroke="#001122"></path><path d="M1462.4 1261.2L1461.4 1094.1L1330.3 1206.2Z" fill="#022642" stroke="#022642"></path><path d="M1554.6 985L1440.4 886.9L1411.4 1011Z" fill="#022642" stroke="#022642"></path><path d="M1411.4 1011L1440.4 886.9L1368.3 1000Z" fill="#012947" stroke="#012947"></path><path d="M1077.1 700.7L974 659.7L979 741.8Z" fill="#03182c" stroke="#03182c"></path><path d="M921.9 693.7L812.8 700.7L812.8 761.8Z" fill="#012d4d" stroke="#012d4d"></path><path d="M1014 573.6L974 659.7L1077.1 700.7Z" fill="#03182c" stroke="#03182c"></path><path d="M1440.4 886.9L1342.3 742.8L1310.3 881.9Z" fill="#02223c" stroke="#02223c"></path><path d="M1225.2 749.8L1192.2 646.7L1141.1 743.8Z" fill="#021527" stroke="#021527"></path><path d="M1325.3 646.7L1192.2 646.7L1225.2 749.8Z" fill="#012d4d" stroke="#012d4d"></path><path d="M642.7 850.9L675.7 989L771.8 894.9Z" fill="#003459" stroke="#003459"></path><path d="M771.8 894.9L675.7 989L807.8 1003Z" fill="#001122" stroke="#001122"></path><path d="M739.8 1081.1L652.7 1098.1L766.8 1243.2Z" fill="#022642" stroke="#022642"></path><path d="M778.8 561.6L812.8 700.7L921.9 693.7Z" fill="#012d4d" stroke="#012d4d"></path><path d="M643.7 767.8L642.7 850.9L771.8 894.9Z" fill="#001122" stroke="#001122"></path><path d="M787.8 1433.4L912.9 1426.4L876.9 1347.3Z" fill="#001122" stroke="#001122"></path><path d="M876.9 1347.3L912.9 1426.4L1007 1298.3Z" fill="#013053" stroke="#013053"></path><path d="M675.7 989L652.7 1098.1L739.8 1081.1Z" fill="#03182c" stroke="#03182c"></path><path d="M1218.2 1461.4L1250.2 1336.3L1135.1 1302.3Z" fill="#02223c" stroke="#02223c"></path><path d="M1250.2 1336.3L1293.3 1420.4L1351.3 1298.3Z" fill="#013053" stroke="#013053"></path><path d="M1351.3 1298.3L1462.4 1261.2L1330.3 1206.2Z" fill="#03182c" stroke="#03182c"></path><path d="M1465.4 1363.3L1462.4 1261.2L1351.3 1298.3Z" fill="#03182c" stroke="#03182c"></path><path d="M986 1470.4L1094.1 1474.4L1007 1298.3Z" fill="#021527" stroke="#021527"></path><path d="M912.9 1426.4L986 1470.4L1007 1298.3Z" fill="#021f37" stroke="#021f37"></path><path d="M1094.1 1474.4L1218.2 1461.4L1135.1 1302.3Z" fill="#013053" stroke="#013053"></path><path d="M1405.4 704.7L1325.3 646.7L1342.3 742.8Z" fill="#021b31" stroke="#021b31"></path><path d="M1342.3 742.8L1325.3 646.7L1225.2 749.8Z" fill="#003459" stroke="#003459"></path><path d="M1543.6 813.8L1453.4 767.8L1440.4 886.9Z" fill="#001122" stroke="#001122"></path><path d="M1440.4 886.9L1453.4 767.8L1342.3 742.8Z" fill="#022642" stroke="#022642"></path><path d="M1453.4 767.8L1405.4 704.7L1342.3 742.8Z" fill="#03182c" stroke="#03182c"></path><path d="M1128.1 566.6L1077.1 700.7L1192.2 646.7Z" fill="#021527" stroke="#021527"></path><path d="M1128.1 566.6L1014 573.6L1077.1 700.7Z" fill="#021527" stroke="#021527"></path><path d="M974 659.7L922.9 535.6L921.9 693.7Z" fill="#012947" stroke="#012947"></path><path d="M1217.2 543.6L1128.1 566.6L1192.2 646.7Z" fill="#012d4d" stroke="#012d4d"></path><path d="M700.7 1319.3L743.8 1355.3L766.8 1243.2Z" fill="#03182c" stroke="#03182c"></path><path d="M766.8 1243.2L743.8 1355.3L876.9 1347.3Z" fill="#012d4d" stroke="#012d4d"></path><path d="M889.9 1544.6L960 1551.6L986 1470.4Z" fill="#003459" stroke="#003459"></path><path d="M1547.6 1149.1L1554.6 985L1461.4 1094.1Z" fill="#02223c" stroke="#02223c"></path><path d="M1461.4 1094.1L1554.6 985L1411.4 1011Z" fill="#001122" stroke="#001122"></path><path d="M643.7 767.8L771.8 894.9L812.8 761.8Z" fill="#001122" stroke="#001122"></path><path d="M675.7 989L527.6 971L652.7 1098.1Z" fill="#022642" stroke="#022642"></path><path d="M1462.4 1261.2L1547.6 1149.1L1461.4 1094.1Z" fill="#021f37" stroke="#021f37"></path><path d="M654.7 1247.2L700.7 1319.3L766.8 1243.2Z" fill="#021f37" stroke="#021f37"></path><path d="M547.6 1197.2L654.7 1247.2L652.7 1098.1Z" fill="#012d4d" stroke="#012d4d"></path><path d="M652.7 1098.1L654.7 1247.2L766.8 1243.2Z" fill="#03182c" stroke="#03182c"></path><path d="M1554.6 985L1553.6 910.9L1440.4 886.9Z" fill="#021f37" stroke="#021f37"></path><path d="M1462.4 1261.2L1546.6 1215.2L1547.6 1149.1Z" fill="#012947" stroke="#012947"></path><path d="M1684.7 995L1634.7 882.9L1554.6 985Z" fill="#003459" stroke="#003459"></path><path d="M1547.6 1355.3L1546.6 1215.2L1462.4 1261.2Z" fill="#012947" stroke="#012947"></path><path d="M703.7 1416.4L787.8 1433.4L743.8 1355.3Z" fill="#022642" stroke="#022642"></path><path d="M743.8 1355.3L787.8 1433.4L876.9 1347.3Z" fill="#003459" stroke="#003459"></path><path d="M1325.3 646.7L1217.2 543.6L1192.2 646.7Z" fill="#022642" stroke="#022642"></path><path d="M1000 409.4L922.9 535.6L1014 573.6Z" fill="#021b31" stroke="#021b31"></path><path d="M1339.3 524.6L1217.2 543.6L1325.3 646.7Z" fill="#022642" stroke="#022642"></path><path d="M1547.6 1355.3L1465.4 1363.3L1526.6 1412.4Z" fill="#03182c" stroke="#03182c"></path><path d="M1293.3 1420.4L1465.4 1363.3L1351.3 1298.3Z" fill="#022642" stroke="#022642"></path><path d="M1453.4 767.8L1540.6 641.7L1405.4 704.7Z" fill="#02223c" stroke="#02223c"></path><path d="M1441.4 539.6L1339.3 524.6L1325.3 646.7Z" fill="#013053" stroke="#013053"></path><path d="M1553.6 910.9L1543.6 813.8L1440.4 886.9Z" fill="#003459" stroke="#003459"></path><path d="M694.7 664.7L643.7 767.8L812.8 761.8Z" fill="#003459" stroke="#003459"></path><path d="M694.7 664.7L812.8 761.8L812.8 700.7Z" fill="#03182c" stroke="#03182c"></path><path d="M1141.1 464.4L1014 573.6L1128.1 566.6Z" fill="#021527" stroke="#021527"></path><path d="M1014 573.6L922.9 535.6L974 659.7Z" fill="#021f37" stroke="#021f37"></path><path d="M778.8 561.6L694.7 664.7L812.8 700.7Z" fill="#003459" stroke="#003459"></path><path d="M889.9 1544.6L986 1470.4L912.9 1426.4Z" fill="#02223c" stroke="#02223c"></path><path d="M986 1470.4L1073.1 1583.6L1094.1 1474.4Z" fill="#03182c" stroke="#03182c"></path><path d="M1094.1 1474.4L1200.2 1586.6L1218.2 1461.4Z" fill="#021f37" stroke="#021f37"></path><path d="M700.7 1319.3L703.7 1416.4L743.8 1355.3Z" fill="#022642" stroke="#022642"></path><path d="M787.8 1433.4L889.9 1544.6L912.9 1426.4Z" fill="#003459" stroke="#003459"></path><path d="M588.6 1411.4L703.7 1416.4L700.7 1319.3Z" fill="#021b31" stroke="#021b31"></path><path d="M790.8 1569.6L889.9 1544.6L787.8 1433.4Z" fill="#02223c" stroke="#02223c"></path><path d="M1025 1665.7L1073.1 1583.6L960 1551.6Z" fill="#013053" stroke="#013053"></path><path d="M960 1551.6L1073.1 1583.6L986 1470.4Z" fill="#021527" stroke="#021527"></path><path d="M1369.3 1594.6L1422.4 1555.6L1293.3 1420.4Z" fill="#02223c" stroke="#02223c"></path><path d="M922.9 535.6L778.8 561.6L921.9 693.7Z" fill="#022642" stroke="#022642"></path><path d="M521.6 875.9L642.7 850.9L573.6 746.8Z" fill="#001122" stroke="#001122"></path><path d="M521.6 875.9L527.6 971L642.7 850.9Z" fill="#012947" stroke="#012947"></path><path d="M642.7 850.9L527.6 971L675.7 989Z" fill="#03182c" stroke="#03182c"></path><path d="M654.7 1247.2L577.6 1295.3L700.7 1319.3Z" fill="#02223c" stroke="#02223c"></path><path d="M527.6 1112.1L547.6 1197.2L652.7 1098.1Z" fill="#021527" stroke="#021527"></path><path d="M527.6 971L527.6 1112.1L652.7 1098.1Z" fill="#02223c" stroke="#02223c"></path><path d="M1441.4 539.6L1325.3 646.7L1405.4 704.7Z" fill="#001122" stroke="#001122"></path><path d="M1217.2 543.6L1141.1 464.4L1128.1 566.6Z" fill="#03182c" stroke="#03182c"></path><path d="M1480.4 1438.4L1465.4 1363.3L1293.3 1420.4Z" fill="#012947" stroke="#012947"></path><path d="M1465.4 1363.3L1547.6 1355.3L1462.4 1261.2Z" fill="#012d4d" stroke="#012d4d"></path><path d="M1650.7 1109.1L1554.6 985L1547.6 1149.1Z" fill="#013053" stroke="#013053"></path><path d="M1224.2 409.4L1141.1 464.4L1217.2 543.6Z" fill="#003459" stroke="#003459"></path><path d="M922.9 535.6L787.8 432.4L778.8 561.6Z" fill="#001122" stroke="#001122"></path><path d="M1073.1 1583.6L1200.2 1586.6L1094.1 1474.4Z" fill="#003459" stroke="#003459"></path><path d="M1422.4 1555.6L1480.4 1438.4L1293.3 1420.4Z" fill="#021f37" stroke="#021f37"></path><path d="M1554.6 985L1634.7 882.9L1553.6 910.9Z" fill="#02223c" stroke="#02223c"></path><path d="M1553.6 910.9L1634.7 882.9L1543.6 813.8Z" fill="#013053" stroke="#013053"></path><path d="M1543.6 813.8L1540.6 641.7L1453.4 767.8Z" fill="#02223c" stroke="#02223c"></path><path d="M1650.7 1109.1L1547.6 1149.1L1546.6 1215.2Z" fill="#003459" stroke="#003459"></path><path d="M547.6 1197.2L577.6 1295.3L654.7 1247.2Z" fill="#003459" stroke="#003459"></path><path d="M1674.7 1250.2L1650.7 1109.1L1546.6 1215.2Z" fill="#03182c" stroke="#03182c"></path><path d="M573.6 746.8L643.7 767.8L587.6 678.7Z" fill="#02223c" stroke="#02223c"></path><path d="M573.6 746.8L642.7 850.9L643.7 767.8Z" fill="#003459" stroke="#003459"></path><path d="M527.6 971L471.4 981L527.6 1112.1Z" fill="#03182c" stroke="#03182c"></path><path d="M587.6 678.7L643.7 767.8L694.7 664.7Z" fill="#003459" stroke="#003459"></path><path d="M1480.4 1438.4L1526.6 1412.4L1465.4 1363.3Z" fill="#02223c" stroke="#02223c"></path><path d="M1547.6 1355.3L1674.7 1250.2L1546.6 1215.2Z" fill="#021b31" stroke="#021b31"></path><path d="M1648.7 804.8L1540.6 641.7L1543.6 813.8Z" fill="#03182c" stroke="#03182c"></path><path d="M696.7 472.4L693.7 573.6L778.8 561.6Z" fill="#021f37" stroke="#021f37"></path><path d="M778.8 561.6L693.7 573.6L694.7 664.7Z" fill="#021527" stroke="#021527"></path><path d="M1650.7 1109.1L1684.7 995L1554.6 985Z" fill="#03182c" stroke="#03182c"></path><path d="M1634.7 882.9L1648.7 804.8L1543.6 813.8Z" fill="#02223c" stroke="#02223c"></path><path d="M1540.6 641.7L1441.4 539.6L1405.4 704.7Z" fill="#013053" stroke="#013053"></path><path d="M1339.3 524.6L1224.2 409.4L1217.2 543.6Z" fill="#021f37" stroke="#021f37"></path><path d="M1777.8 878.9L1648.7 804.8L1634.7 882.9Z" fill="#012d4d" stroke="#012d4d"></path><path d="M571.6 594.6L587.6 678.7L694.7 664.7Z" fill="#012947" stroke="#012947"></path><path d="M573.6 746.8L475.4 812.8L521.6 875.9Z" fill="#021b31" stroke="#021b31"></path><path d="M444.4 849.9L471.4 981L521.6 875.9Z" fill="#03182c" stroke="#03182c"></path><path d="M521.6 875.9L471.4 981L527.6 971Z" fill="#021f37" stroke="#021f37"></path><path d="M527.6 1112.1L439.4 1220.2L547.6 1197.2Z" fill="#02223c" stroke="#02223c"></path><path d="M453.4 1297.3L588.6 1411.4L577.6 1295.3Z" fill="#012d4d" stroke="#012d4d"></path><path d="M704.7 1585.6L790.8 1569.6L787.8 1433.4Z" fill="#012d4d" stroke="#012d4d"></path><path d="M884.9 1688.7L1025 1665.7L960 1551.6Z" fill="#022642" stroke="#022642"></path><path d="M704.7 1585.6L787.8 1433.4L703.7 1416.4Z" fill="#003459" stroke="#003459"></path><path d="M1369.3 1594.6L1293.3 1420.4L1218.2 1461.4Z" fill="#021b31" stroke="#021b31"></path><path d="M1628.7 1521.6L1654.7 1476.4L1526.6 1412.4Z" fill="#021f37" stroke="#021f37"></path><path d="M453.4 1297.3L577.6 1295.3L547.6 1197.2Z" fill="#021b31" stroke="#021b31"></path><path d="M577.6 1295.3L588.6 1411.4L700.7 1319.3Z" fill="#021b31" stroke="#021b31"></path><path d="M1073.1 335.3L1000 409.4L1141.1 464.4Z" fill="#003459" stroke="#003459"></path><path d="M1141.1 464.4L1000 409.4L1014 573.6Z" fill="#03182c" stroke="#03182c"></path><path d="M1000 409.4L906.9 427.4L922.9 535.6Z" fill="#012947" stroke="#012947"></path><path d="M1692.7 1337.3L1674.7 1250.2L1547.6 1355.3Z" fill="#001122" stroke="#001122"></path><path d="M1650.7 1109.1L1756.8 1088.1L1684.7 995Z" fill="#013053" stroke="#013053"></path><path d="M1692.7 1337.3L1547.6 1355.3L1654.7 1476.4Z" fill="#022642" stroke="#022642"></path><path d="M1200.2 1586.6L1369.3 1594.6L1218.2 1461.4Z" fill="#021f37" stroke="#021f37"></path><path d="M1296.3 1665.7L1369.3 1594.6L1200.2 1586.6Z" fill="#012947" stroke="#012947"></path><path d="M471.4 981L453.4 1092.1L527.6 1112.1Z" fill="#021f37" stroke="#021f37"></path><path d="M1359.3 404.4L1224.2 409.4L1339.3 524.6Z" fill="#013053" stroke="#013053"></path><path d="M884.9 1688.7L960 1551.6L889.9 1544.6Z" fill="#021527" stroke="#021527"></path><path d="M1073.1 1583.6L1080.1 1694.7L1200.2 1586.6Z" fill="#001122" stroke="#001122"></path><path d="M483.4 692.7L475.4 812.8L573.6 746.8Z" fill="#03182c" stroke="#03182c"></path><path d="M471.4 981L362.3 1029L453.4 1092.1Z" fill="#021b31" stroke="#021b31"></path><path d="M1658.7 634.7L1557.6 583.6L1540.6 641.7Z" fill="#02223c" stroke="#02223c"></path><path d="M1540.6 641.7L1557.6 583.6L1441.4 539.6Z" fill="#012947" stroke="#012947"></path><path d="M1441.4 539.6L1359.3 404.4L1339.3 524.6Z" fill="#012947" stroke="#012947"></path><path d="M1080.1 1694.7L1253.2 1665.7L1200.2 1586.6Z" fill="#021527" stroke="#021527"></path><path d="M475.4 812.8L444.4 849.9L521.6 875.9Z" fill="#001122" stroke="#001122"></path><path d="M1106.1 1762.8L1080.1 1694.7L996 1759.8Z" fill="#013053" stroke="#013053"></path><path d="M1025 1665.7L1080.1 1694.7L1073.1 1583.6Z" fill="#02223c" stroke="#02223c"></path><path d="M849.9 336.3L787.8 432.4L906.9 427.4Z" fill="#003459" stroke="#003459"></path><path d="M906.9 427.4L787.8 432.4L922.9 535.6Z" fill="#003459" stroke="#003459"></path><path d="M693.7 573.6L571.6 594.6L694.7 664.7Z" fill="#003459" stroke="#003459"></path><path d="M587.6 678.7L483.4 692.7L573.6 746.8Z" fill="#001122" stroke="#001122"></path><path d="M306.3 790.8L339.3 852.9L444.4 849.9Z" fill="#012947" stroke="#012947"></path><path d="M1254.2 1748.8L1296.3 1665.7L1253.2 1665.7Z" fill="#021f37" stroke="#021f37"></path><path d="M1253.2 1665.7L1296.3 1665.7L1200.2 1586.6Z" fill="#021b31" stroke="#021b31"></path><path d="M1369.3 1594.6L1426.4 1658.7L1422.4 1555.6Z" fill="#021527" stroke="#021527"></path><path d="M593.6 465.4L571.6 594.6L693.7 573.6Z" fill="#021f37" stroke="#021f37"></path><path d="M357.3 1098.1L439.4 1220.2L453.4 1092.1Z" fill="#012947" stroke="#012947"></path><path d="M453.4 1092.1L439.4 1220.2L527.6 1112.1Z" fill="#021b31" stroke="#021b31"></path><path d="M560.6 1586.6L704.7 1585.6L588.6 1411.4Z" fill="#013053" stroke="#013053"></path><path d="M588.6 1411.4L704.7 1585.6L703.7 1416.4Z" fill="#021b31" stroke="#021b31"></path><path d="M790.8 1569.6L884.9 1688.7L889.9 1544.6Z" fill="#012947" stroke="#012947"></path><path d="M1794.8 1218.2L1756.8 1088.1L1650.7 1109.1Z" fill="#02223c" stroke="#02223c"></path><path d="M1684.7 995L1777.8 878.9L1634.7 882.9Z" fill="#02223c" stroke="#02223c"></path><path d="M787.8 432.4L696.7 472.4L778.8 561.6Z" fill="#02223c" stroke="#02223c"></path><path d="M1526.6 1412.4L1480.4 1438.4L1567.6 1572.6Z" fill="#003459" stroke="#003459"></path><path d="M1654.7 1476.4L1547.6 1355.3L1526.6 1412.4Z" fill="#003459" stroke="#003459"></path><path d="M1674.7 1250.2L1794.8 1218.2L1650.7 1109.1Z" fill="#003459" stroke="#003459"></path><path d="M1482.4 455.4L1359.3 404.4L1441.4 539.6Z" fill="#021b31" stroke="#021b31"></path><path d="M1224.2 409.4L1073.1 335.3L1141.1 464.4Z" fill="#03182c" stroke="#03182c"></path><path d="M439.4 1220.2L453.4 1297.3L547.6 1197.2Z" fill="#022642" stroke="#022642"></path><path d="M774.8 1677.7L884.9 1688.7L790.8 1569.6Z" fill="#03182c" stroke="#03182c"></path><path d="M571.6 594.6L483.4 692.7L587.6 678.7Z" fill="#003459" stroke="#003459"></path><path d="M1756.8 1088.1L1771.8 973L1684.7 995Z" fill="#021b31" stroke="#021b31"></path><path d="M1648.7 804.8L1658.7 634.7L1540.6 641.7Z" fill="#03182c" stroke="#03182c"></path><path d="M1226.2 327.3L1073.1 335.3L1224.2 409.4Z" fill="#003459" stroke="#003459"></path><path d="M1000 409.4L985 321.3L906.9 427.4Z" fill="#013053" stroke="#013053"></path><path d="M1783.8 692.7L1658.7 634.7L1648.7 804.8Z" fill="#021b31" stroke="#021b31"></path><path d="M1557.6 583.6L1482.4 455.4L1441.4 539.6Z" fill="#021f37" stroke="#021f37"></path><path d="M1564.6 414.4L1482.4 455.4L1557.6 583.6Z" fill="#021f37" stroke="#021f37"></path><path d="M1771.8 973L1777.8 878.9L1684.7 995Z" fill="#021f37" stroke="#021f37"></path><path d="M1073.1 335.3L985 321.3L1000 409.4Z" fill="#012d4d" stroke="#012d4d"></path><path d="M787.8 432.4L780.8 354.3L696.7 472.4Z" fill="#03182c" stroke="#03182c"></path><path d="M1360.3 1799.8L1426.4 1658.7L1296.3 1665.7Z" fill="#02223c" stroke="#02223c"></path><path d="M1296.3 1665.7L1426.4 1658.7L1369.3 1594.6Z" fill="#021b31" stroke="#021b31"></path><path d="M1352.3 327.3L1224.2 409.4L1359.3 404.4Z" fill="#012d4d" stroke="#012d4d"></path><path d="M1352.3 327.3L1226.2 327.3L1224.2 409.4Z" fill="#012d4d" stroke="#012d4d"></path><path d="M1073.1 335.3L998 224.2L985 321.3Z" fill="#003459" stroke="#003459"></path><path d="M704.7 1585.6L774.8 1677.7L790.8 1569.6Z" fill="#021527" stroke="#021527"></path><path d="M632.7 1675.7L774.8 1677.7L704.7 1585.6Z" fill="#001122" stroke="#001122"></path><path d="M339.3 852.9L471.4 981L444.4 849.9Z" fill="#001122" stroke="#001122"></path><path d="M339.3 852.9L362.3 1029L471.4 981Z" fill="#013053" stroke="#013053"></path><path d="M439.4 1220.2L328.3 1201.2L453.4 1297.3Z" fill="#003459" stroke="#003459"></path><path d="M1567.6 1572.6L1480.4 1438.4L1422.4 1555.6Z" fill="#003459" stroke="#003459"></path><path d="M1426.4 1658.7L1567.6 1572.6L1422.4 1555.6Z" fill="#003459" stroke="#003459"></path><path d="M362.3 1029L357.3 1098.1L453.4 1092.1Z" fill="#022642" stroke="#022642"></path><path d="M1744.8 1419.4L1755.8 1316.3L1692.7 1337.3Z" fill="#001122" stroke="#001122"></path><path d="M1692.7 1337.3L1755.8 1316.3L1674.7 1250.2Z" fill="#021f37" stroke="#021f37"></path><path d="M1877.9 978L1777.8 878.9L1771.8 973Z" fill="#012947" stroke="#012947"></path><path d="M1851.9 855.9L1798.8 799.8L1777.8 878.9Z" fill="#021b31" stroke="#021b31"></path><path d="M985 321.3L849.9 336.3L906.9 427.4Z" fill="#02223c" stroke="#02223c"></path><path d="M996 1759.8L1080.1 1694.7L1025 1665.7Z" fill="#021f37" stroke="#021f37"></path><path d="M1080.1 1694.7L1106.1 1762.8L1253.2 1665.7Z" fill="#022642" stroke="#022642"></path><path d="M996 1759.8L1025 1665.7L884.9 1688.7Z" fill="#013053" stroke="#013053"></path><path d="M1567.6 1572.6L1628.7 1521.6L1526.6 1412.4Z" fill="#012947" stroke="#012947"></path><path d="M1654.7 1476.4L1744.8 1419.4L1692.7 1337.3Z" fill="#021b31" stroke="#021b31"></path><path d="M351.3 1359.3L478.4 1444.4L453.4 1297.3Z" fill="#03182c" stroke="#03182c"></path><path d="M453.4 1297.3L478.4 1444.4L588.6 1411.4Z" fill="#003459" stroke="#003459"></path><path d="M1755.8 1316.3L1794.8 1218.2L1674.7 1250.2Z" fill="#013053" stroke="#013053"></path><path d="M888.9 1771.8L996 1759.8L884.9 1688.7Z" fill="#021f37" stroke="#021f37"></path><path d="M1106.1 1762.8L1254.2 1748.8L1253.2 1665.7Z" fill="#02223c" stroke="#02223c"></path><path d="M849.9 336.3L780.8 354.3L787.8 432.4Z" fill="#021527" stroke="#021527"></path><path d="M696.7 472.4L593.6 465.4L693.7 573.6Z" fill="#021b31" stroke="#021b31"></path><path d="M571.6 594.6L418.4 591.6L483.4 692.7Z" fill="#013053" stroke="#013053"></path><path d="M1803.8 556.6L1651.7 543.6L1658.7 634.7Z" fill="#012947" stroke="#012947"></path><path d="M1658.7 634.7L1651.7 543.6L1557.6 583.6Z" fill="#021b31" stroke="#021b31"></path><path d="M650.7 303.3L593.6 465.4L696.7 472.4Z" fill="#021527" stroke="#021527"></path><path d="M1851.9 855.9L1777.8 878.9L1877.9 978Z" fill="#001122" stroke="#001122"></path><path d="M1777.8 878.9L1798.8 799.8L1648.7 804.8Z" fill="#022642" stroke="#022642"></path><path d="M1447.4 311.3L1359.3 404.4L1482.4 455.4Z" fill="#003459" stroke="#003459"></path><path d="M1447.4 311.3L1352.3 327.3L1359.3 404.4Z" fill="#021b31" stroke="#021b31"></path><path d="M1226.2 327.3L1150.1 241.2L1073.1 335.3Z" fill="#012947" stroke="#012947"></path><path d="M478.4 1444.4L560.6 1586.6L588.6 1411.4Z" fill="#012d4d" stroke="#012d4d"></path><path d="M306.3 790.8L444.4 849.9L475.4 812.8Z" fill="#012947" stroke="#012947"></path><path d="M194.2 1111.1L328.3 1201.2L357.3 1098.1Z" fill="#013053" stroke="#013053"></path><path d="M306.3 790.8L475.4 812.8L483.4 692.7Z" fill="#02223c" stroke="#02223c"></path><path d="M1849.9 1430.4L1744.8 1419.4L1803.8 1516.6Z" fill="#021527" stroke="#021527"></path><path d="M1755.8 1316.3L1869.9 1252.2L1794.8 1218.2Z" fill="#021f37" stroke="#021f37"></path><path d="M775.8 1790.8L888.9 1771.8L774.8 1677.7Z" fill="#001122" stroke="#001122"></path><path d="M774.8 1677.7L888.9 1771.8L884.9 1688.7Z" fill="#021f37" stroke="#021f37"></path><path d="M996 1759.8L1037 1863.9L1106.1 1762.8Z" fill="#02223c" stroke="#02223c"></path><path d="M237.2 1002L357.3 1098.1L362.3 1029Z" fill="#02223c" stroke="#02223c"></path><path d="M357.3 1098.1L328.3 1201.2L439.4 1220.2Z" fill="#012947" stroke="#012947"></path><path d="M478.4 1444.4L448.4 1570.6L560.6 1586.6Z" fill="#012947" stroke="#012947"></path><path d="M1798.8 799.8L1783.8 692.7L1648.7 804.8Z" fill="#021527" stroke="#021527"></path><path d="M1651.7 543.6L1564.6 414.4L1557.6 583.6Z" fill="#03182c" stroke="#03182c"></path><path d="M1665.7 466.4L1564.6 414.4L1651.7 543.6Z" fill="#022642" stroke="#022642"></path><path d="M1877.9 978L1771.8 973L1756.8 1088.1Z" fill="#021b31" stroke="#021b31"></path><path d="M1798.8 799.8L1885.9 779.8L1783.8 692.7Z" fill="#021b31" stroke="#021b31"></path><path d="M560.6 1586.6L632.7 1675.7L704.7 1585.6Z" fill="#021b31" stroke="#021b31"></path><path d="M1223.2 224.2L1226.2 327.3L1352.3 327.3Z" fill="#012947" stroke="#012947"></path><path d="M1223.2 224.2L1150.1 241.2L1226.2 327.3Z" fill="#003459" stroke="#003459"></path><path d="M985 321.3L889.9 207.2L849.9 336.3Z" fill="#02223c" stroke="#02223c"></path><path d="M849.9 336.3L761.8 254.2L780.8 354.3Z" fill="#021527" stroke="#021527"></path><path d="M1910.9 1116.1L1756.8 1088.1L1794.8 1218.2Z" fill="#03182c" stroke="#03182c"></path><path d="M1910.9 1116.1L1877.9 978L1756.8 1088.1Z" fill="#02223c" stroke="#02223c"></path><path d="M416.4 466.4L418.4 591.6L571.6 594.6Z" fill="#021b31" stroke="#021b31"></path><path d="M1426.4 1658.7L1574.6 1658.7L1567.6 1572.6Z" fill="#013053" stroke="#013053"></path><path d="M1567.6 1572.6L1686.7 1662.7L1628.7 1521.6Z" fill="#03182c" stroke="#03182c"></path><path d="M1803.8 1516.6L1744.8 1419.4L1654.7 1476.4Z" fill="#022642" stroke="#022642"></path><path d="M1543.6 1788.8L1574.6 1658.7L1426.4 1658.7Z" fill="#003459" stroke="#003459"></path><path d="M328.3 1201.2L351.3 1359.3L453.4 1297.3Z" fill="#013053" stroke="#013053"></path><path d="M560.6 1586.6L559.6 1703.7L632.7 1675.7Z" fill="#013053" stroke="#013053"></path><path d="M1564.6 414.4L1447.4 311.3L1482.4 455.4Z" fill="#001122" stroke="#001122"></path><path d="M1766.8 475.4L1665.7 466.4L1651.7 543.6Z" fill="#02223c" stroke="#02223c"></path><path d="M1529.6 188.2L1417.4 256.2L1447.4 311.3Z" fill="#022642" stroke="#022642"></path><path d="M1150.1 241.2L998 224.2L1073.1 335.3Z" fill="#012d4d" stroke="#012d4d"></path><path d="M780.8 354.3L650.7 303.3L696.7 472.4Z" fill="#021527" stroke="#021527"></path><path d="M298.3 698.7L306.3 790.8L483.4 692.7Z" fill="#022642" stroke="#022642"></path><path d="M237.2 914.9L237.2 1002L362.3 1029Z" fill="#02223c" stroke="#02223c"></path><path d="M1885.9 1303.3L1755.8 1316.3L1849.9 1430.4Z" fill="#021f37" stroke="#021f37"></path><path d="M1885.9 1303.3L1869.9 1252.2L1755.8 1316.3Z" fill="#03182c" stroke="#03182c"></path><path d="M1358.3 187.2L1223.2 224.2L1352.3 327.3Z" fill="#012947" stroke="#012947"></path><path d="M1150.1 241.2L1150.1 147.1L998 224.2Z" fill="#003459" stroke="#003459"></path><path d="M1254.2 1748.8L1360.3 1799.8L1296.3 1665.7Z" fill="#001122" stroke="#001122"></path><path d="M1232.2 1881.9L1360.3 1799.8L1254.2 1748.8Z" fill="#012d4d" stroke="#012d4d"></path><path d="M1232.2 1881.9L1254.2 1748.8L1106.1 1762.8Z" fill="#012947" stroke="#012947"></path><path d="M704.7 1770.8L775.8 1790.8L774.8 1677.7Z" fill="#003459" stroke="#003459"></path><path d="M888.9 1771.8L1037 1863.9L996 1759.8Z" fill="#021f37" stroke="#021f37"></path><path d="M1869.9 1252.2L1910.9 1116.1L1794.8 1218.2Z" fill="#021b31" stroke="#021b31"></path><path d="M2000 919.9L1885.9 779.8L1851.9 855.9Z" fill="#021b31" stroke="#021b31"></path><path d="M632.7 1675.7L704.7 1770.8L774.8 1677.7Z" fill="#012d4d" stroke="#012d4d"></path><path d="M546.6 1772.8L704.7 1770.8L632.7 1675.7Z" fill="#003459" stroke="#003459"></path><path d="M341.3 1451.4L448.4 1570.6L478.4 1444.4Z" fill="#001122" stroke="#001122"></path><path d="M893.9 1927.9L1037 1863.9L888.9 1771.8Z" fill="#021f37" stroke="#021f37"></path><path d="M889.9 207.2L761.8 254.2L849.9 336.3Z" fill="#021b31" stroke="#021b31"></path><path d="M593.6 465.4L416.4 466.4L571.6 594.6Z" fill="#001122" stroke="#001122"></path><path d="M2000 919.9L1851.9 855.9L1877.9 978Z" fill="#012d4d" stroke="#012d4d"></path><path d="M1851.9 855.9L1885.9 779.8L1798.8 799.8Z" fill="#02223c" stroke="#02223c"></path><path d="M1783.8 692.7L1803.8 556.6L1658.7 634.7Z" fill="#022642" stroke="#022642"></path><path d="M1589.6 336.3L1447.4 311.3L1564.6 414.4Z" fill="#022642" stroke="#022642"></path><path d="M1447.4 311.3L1417.4 256.2L1352.3 327.3Z" fill="#022642" stroke="#022642"></path><path d="M998 224.2L889.9 207.2L985 321.3Z" fill="#022642" stroke="#022642"></path><path d="M906.9 134.1L889.9 207.2L998 224.2Z" fill="#003459" stroke="#003459"></path><path d="M761.8 254.2L650.7 303.3L780.8 354.3Z" fill="#012d4d" stroke="#012d4d"></path><path d="M237.2 914.9L362.3 1029L339.3 852.9Z" fill="#021527" stroke="#021527"></path><path d="M209.2 1353.3L341.3 1451.4L351.3 1359.3Z" fill="#012947" stroke="#012947"></path><path d="M1849.9 1430.4L1755.8 1316.3L1744.8 1419.4Z" fill="#021527" stroke="#021527"></path><path d="M2000 1199.2L2000 1135.1L1910.9 1116.1Z" fill="#001122" stroke="#001122"></path><path d="M418.4 591.6L298.3 698.7L483.4 692.7Z" fill="#003459" stroke="#003459"></path><path d="M241.2 794.8L237.2 914.9L339.3 852.9Z" fill="#021f37" stroke="#021f37"></path><path d="M325.3 545.6L298.3 698.7L418.4 591.6Z" fill="#003459" stroke="#003459"></path><path d="M442.4 1669.7L559.6 1703.7L560.6 1586.6Z" fill="#003459" stroke="#003459"></path><path d="M199.2 1246.2L351.3 1359.3L328.3 1201.2Z" fill="#001122" stroke="#001122"></path><path d="M351.3 1359.3L341.3 1451.4L478.4 1444.4Z" fill="#013053" stroke="#013053"></path><path d="M448.4 1570.6L442.4 1669.7L560.6 1586.6Z" fill="#003459" stroke="#003459"></path><path d="M241.2 794.8L339.3 852.9L306.3 790.8Z" fill="#021b31" stroke="#021b31"></path><path d="M650.7 303.3L550.6 359.3L593.6 465.4Z" fill="#02223c" stroke="#02223c"></path><path d="M1360.3 1799.8L1435.4 1810.8L1426.4 1658.7Z" fill="#012947" stroke="#012947"></path><path d="M1371.3 1890.9L1435.4 1810.8L1360.3 1799.8Z" fill="#012947" stroke="#012947"></path><path d="M1665.7 466.4L1589.6 336.3L1564.6 414.4Z" fill="#012d4d" stroke="#012d4d"></path><path d="M1687.7 309.3L1589.6 336.3L1665.7 466.4Z" fill="#021b31" stroke="#021b31"></path><path d="M1901.9 650.7L1803.8 556.6L1783.8 692.7Z" fill="#03182c" stroke="#03182c"></path><path d="M1803.8 1516.6L1628.7 1521.6L1686.7 1662.7Z" fill="#001122" stroke="#001122"></path><path d="M1803.8 1516.6L1654.7 1476.4L1628.7 1521.6Z" fill="#021f37" stroke="#021f37"></path><path d="M1113.1 1922.9L1232.2 1881.9L1106.1 1762.8Z" fill="#02223c" stroke="#02223c"></path><path d="M1686.7 1662.7L1567.6 1572.6L1574.6 1658.7Z" fill="#001122" stroke="#001122"></path><path d="M550.6 359.3L416.4 466.4L593.6 465.4Z" fill="#021b31" stroke="#021b31"></path><path d="M1699.7 1780.8L1686.7 1662.7L1574.6 1658.7Z" fill="#021527" stroke="#021527"></path><path d="M221.2 649.7L241.2 794.8L298.3 698.7Z" fill="#022642" stroke="#022642"></path><path d="M298.3 698.7L241.2 794.8L306.3 790.8Z" fill="#003459" stroke="#003459"></path><path d="M1803.8 556.6L1766.8 475.4L1651.7 543.6Z" fill="#003459" stroke="#003459"></path><path d="M1229.2 124.1L1150.1 147.1L1223.2 224.2Z" fill="#021b31" stroke="#021b31"></path><path d="M1223.2 224.2L1150.1 147.1L1150.1 241.2Z" fill="#012947" stroke="#012947"></path><path d="M1417.4 256.2L1358.3 187.2L1352.3 327.3Z" fill="#003459" stroke="#003459"></path><path d="M1449.4 99.1L1358.3 187.2L1417.4 256.2Z" fill="#021b31" stroke="#021b31"></path><path d="M1547.6 1852.9L1543.6 1788.8L1435.4 1810.8Z" fill="#022642" stroke="#022642"></path><path d="M1435.4 1810.8L1543.6 1788.8L1426.4 1658.7Z" fill="#03182c" stroke="#03182c"></path><path d="M149.1 1197.2L194.2 1111.1L126.1 1112.1Z" fill="#02223c" stroke="#02223c"></path><path d="M134.1 1013L194.2 1111.1L237.2 1002Z" fill="#022642" stroke="#022642"></path><path d="M237.2 1002L194.2 1111.1L357.3 1098.1Z" fill="#021527" stroke="#021527"></path><path d="M1114.1 2000L1113.1 1922.9L1026 2000Z" fill="#021527" stroke="#021527"></path><path d="M1037 1863.9L1113.1 1922.9L1106.1 1762.8Z" fill="#012d4d" stroke="#012d4d"></path><path d="M1232.2 1881.9L1371.3 1890.9L1360.3 1799.8Z" fill="#021b31" stroke="#021b31"></path><path d="M893.9 1927.9L888.9 1771.8L765.8 1890.9Z" fill="#013053" stroke="#013053"></path><path d="M416.4 466.4L325.3 545.6L418.4 591.6Z" fill="#03182c" stroke="#03182c"></path><path d="M1885.9 779.8L1901.9 650.7L1783.8 692.7Z" fill="#03182c" stroke="#03182c"></path><path d="M1803.8 556.6L1882.9 519.6L1766.8 475.4Z" fill="#022642" stroke="#022642"></path><path d="M2000 755.8L1901.9 650.7L1885.9 779.8Z" fill="#021f37" stroke="#021f37"></path><path d="M343.3 1571.6L442.4 1669.7L448.4 1570.6Z" fill="#021b31" stroke="#021b31"></path><path d="M559.6 1703.7L546.6 1772.8L632.7 1675.7Z" fill="#022642" stroke="#022642"></path><path d="M1365.3 2000L1371.3 1890.9L1232.2 1881.9Z" fill="#021f37" stroke="#021f37"></path><path d="M194.2 1111.1L199.2 1246.2L328.3 1201.2Z" fill="#003459" stroke="#003459"></path><path d="M341.3 1451.4L343.3 1571.6L448.4 1570.6Z" fill="#001122" stroke="#001122"></path><path d="M889.9 207.2L753.8 88.1L761.8 254.2Z" fill="#021f37" stroke="#021f37"></path><path d="M761.8 254.2L683.7 202.2L650.7 303.3Z" fill="#003459" stroke="#003459"></path><path d="M530.6 247.2L456.4 320.3L550.6 359.3Z" fill="#022642" stroke="#022642"></path><path d="M986 110.1L906.9 134.1L998 224.2Z" fill="#021b31" stroke="#021b31"></path><path d="M1320.3 121.1L1229.2 124.1L1223.2 224.2Z" fill="#003459" stroke="#003459"></path><path d="M1150.1 147.1L986 110.1L998 224.2Z" fill="#001122" stroke="#001122"></path><path d="M455.4 1786.8L546.6 1772.8L559.6 1703.7Z" fill="#012947" stroke="#012947"></path><path d="M765.8 1890.9L888.9 1771.8L775.8 1790.8Z" fill="#001122" stroke="#001122"></path><path d="M235.2 1553.6L343.3 1571.6L341.3 1451.4Z" fill="#013053" stroke="#013053"></path><path d="M442.4 1669.7L455.4 1786.8L559.6 1703.7Z" fill="#021527" stroke="#021527"></path><path d="M765.8 1890.9L775.8 1790.8L699.7 1887.9Z" fill="#012d4d" stroke="#012d4d"></path><path d="M699.7 1887.9L775.8 1790.8L704.7 1770.8Z" fill="#021b31" stroke="#021b31"></path><path d="M2000 1135.1L2000 963L1910.9 1116.1Z" fill="#012947" stroke="#012947"></path><path d="M1910.9 1116.1L2000 963L1877.9 978Z" fill="#003459" stroke="#003459"></path><path d="M1910.9 1116.1L1869.9 1252.2L2000 1199.2Z" fill="#003459" stroke="#003459"></path><path d="M753.8 88.1L683.7 202.2L761.8 254.2Z" fill="#012947" stroke="#012947"></path><path d="M456.4 320.3L350.3 443.4L416.4 466.4Z" fill="#012d4d" stroke="#012d4d"></path><path d="M416.4 466.4L350.3 443.4L325.3 545.6Z" fill="#022642" stroke="#022642"></path><path d="M2000 1199.2L1869.9 1252.2L1885.9 1303.3Z" fill="#021f37" stroke="#021f37"></path><path d="M2000 963L2000 919.9L1877.9 978Z" fill="#013053" stroke="#013053"></path><path d="M1074.1 0L986 110.1L1150.1 147.1Z" fill="#03182c" stroke="#03182c"></path><path d="M2000 1346.3L1885.9 1303.3L1849.9 1430.4Z" fill="#021527" stroke="#021527"></path><path d="M2000 1346.3L2000 1199.2L1885.9 1303.3Z" fill="#013053" stroke="#013053"></path><path d="M199.2 1246.2L209.2 1353.3L351.3 1359.3Z" fill="#021f37" stroke="#021f37"></path><path d="M1358.3 187.2L1320.3 121.1L1223.2 224.2Z" fill="#001122" stroke="#001122"></path><path d="M1252.2 0L1074.1 0L1150.1 147.1Z" fill="#021527" stroke="#021527"></path><path d="M1449.4 99.1L1320.3 121.1L1358.3 187.2Z" fill="#021527" stroke="#021527"></path><path d="M1529.6 188.2L1447.4 311.3L1589.6 336.3Z" fill="#022642" stroke="#022642"></path><path d="M456.4 320.3L416.4 466.4L550.6 359.3Z" fill="#021f37" stroke="#021f37"></path><path d="M325.3 545.6L221.2 649.7L298.3 698.7Z" fill="#001122" stroke="#001122"></path><path d="M1763.8 331.3L1665.7 466.4L1766.8 475.4Z" fill="#001122" stroke="#001122"></path><path d="M1763.8 331.3L1687.7 309.3L1665.7 466.4Z" fill="#001122" stroke="#001122"></path><path d="M546.6 1772.8L699.7 1887.9L704.7 1770.8Z" fill="#021527" stroke="#021527"></path><path d="M797.8 2000L914.9 2000L893.9 1927.9Z" fill="#013053" stroke="#013053"></path><path d="M144.1 661.7L221.2 649.7L190.2 550.6Z" fill="#02223c" stroke="#02223c"></path><path d="M134.1 1013L237.2 1002L237.2 914.9Z" fill="#022642" stroke="#022642"></path><path d="M1371.3 1890.9L1469.4 1889.9L1435.4 1810.8Z" fill="#021527" stroke="#021527"></path><path d="M1543.6 1788.8L1699.7 1780.8L1574.6 1658.7Z" fill="#03182c" stroke="#03182c"></path><path d="M1449.4 2000L1469.4 1889.9L1371.3 1890.9Z" fill="#012d4d" stroke="#012d4d"></path><path d="M1687.7 309.3L1631.7 260.2L1589.6 336.3Z" fill="#03182c" stroke="#03182c"></path><path d="M1469.4 1889.9L1547.6 1852.9L1435.4 1810.8Z" fill="#021b31" stroke="#021b31"></path><path d="M1859.9 1642.7L1909.9 1528.6L1803.8 1516.6Z" fill="#021b31" stroke="#021b31"></path><path d="M530.6 247.2L550.6 359.3L650.7 303.3Z" fill="#021527" stroke="#021527"></path><path d="M2000 519.6L1882.9 519.6L1901.9 650.7Z" fill="#001122" stroke="#001122"></path><path d="M1901.9 650.7L1882.9 519.6L1803.8 556.6Z" fill="#021f37" stroke="#021f37"></path><path d="M194.2 1111.1L149.1 1197.2L199.2 1246.2Z" fill="#012d4d" stroke="#012d4d"></path><path d="M199.2 1246.2L138.1 1328.3L209.2 1353.3Z" fill="#012947" stroke="#012947"></path><path d="M134.1 1013L237.2 914.9L118.1 856.9Z" fill="#021f37" stroke="#021f37"></path><path d="M118.1 856.9L237.2 914.9L241.2 794.8Z" fill="#012947" stroke="#012947"></path><path d="M1631.7 260.2L1529.6 188.2L1589.6 336.3Z" fill="#022642" stroke="#022642"></path><path d="M2000 919.9L2000 755.8L1885.9 779.8Z" fill="#022642" stroke="#022642"></path><path d="M683.7 202.2L530.6 247.2L650.7 303.3Z" fill="#03182c" stroke="#03182c"></path><path d="M640.7 97.1L530.6 247.2L683.7 202.2Z" fill="#013053" stroke="#013053"></path><path d="M753.8 88.1L889.9 207.2L906.9 134.1Z" fill="#021527" stroke="#021527"></path><path d="M134.1 1013L126.1 1112.1L194.2 1111.1Z" fill="#012d4d" stroke="#012d4d"></path><path d="M1810.8 1666.7L1803.8 1516.6L1686.7 1662.7Z" fill="#003459" stroke="#003459"></path><path d="M1803.8 1516.6L1909.9 1528.6L1849.9 1430.4Z" fill="#03182c" stroke="#03182c"></path><path d="M138.1 1328.3L196.2 1410.4L209.2 1353.3Z" fill="#021b31" stroke="#021b31"></path><path d="M209.2 1353.3L196.2 1410.4L341.3 1451.4Z" fill="#022642" stroke="#022642"></path><path d="M138.1 1328.3L199.2 1246.2L149.1 1197.2Z" fill="#021b31" stroke="#021b31"></path><path d="M1699.7 1780.8L1810.8 1666.7L1686.7 1662.7Z" fill="#013053" stroke="#013053"></path><path d="M2000 1432.4L2000 1346.3L1849.9 1430.4Z" fill="#03182c" stroke="#03182c"></path><path d="M1026 2000L1113.1 1922.9L1037 1863.9Z" fill="#012947" stroke="#012947"></path><path d="M1113.1 1922.9L1193.2 2000L1232.2 1881.9Z" fill="#003459" stroke="#003459"></path><path d="M1026 2000L1037 1863.9L893.9 1927.9Z" fill="#02223c" stroke="#02223c"></path><path d="M1547.6 1852.9L1699.7 1780.8L1543.6 1788.8Z" fill="#003459" stroke="#003459"></path><path d="M914.9 2000L1026 2000L893.9 1927.9Z" fill="#003459" stroke="#003459"></path><path d="M1852.9 327.3L1763.8 331.3L1766.8 475.4Z" fill="#003459" stroke="#003459"></path><path d="M1687.7 309.3L1793.8 198.2L1631.7 260.2Z" fill="#021527" stroke="#021527"></path><path d="M1573.6 93.1L1449.4 99.1L1529.6 188.2Z" fill="#021527" stroke="#021527"></path><path d="M1114.1 2000L1193.2 2000L1113.1 1922.9Z" fill="#012947" stroke="#012947"></path><path d="M95.1 813.8L118.1 856.9L241.2 794.8Z" fill="#013053" stroke="#013053"></path><path d="M134.1 1013L0 1139.1L126.1 1112.1Z" fill="#021527" stroke="#021527"></path><path d="M337.3 1768.8L455.4 1786.8L442.4 1669.7Z" fill="#013053" stroke="#013053"></path><path d="M546.6 1772.8L527.6 1896.9L699.7 1887.9Z" fill="#021b31" stroke="#021b31"></path><path d="M306.3 1663.7L442.4 1669.7L343.3 1571.6Z" fill="#02223c" stroke="#02223c"></path><path d="M797.8 2000L765.8 1890.9L699.7 1887.9Z" fill="#02223c" stroke="#02223c"></path><path d="M797.8 2000L893.9 1927.9L765.8 1890.9Z" fill="#03182c" stroke="#03182c"></path><path d="M2000 755.8L2000 662.7L1901.9 650.7Z" fill="#013053" stroke="#013053"></path><path d="M1882.9 519.6L1906.9 417.4L1766.8 475.4Z" fill="#022642" stroke="#022642"></path><path d="M1810.8 1666.7L1859.9 1642.7L1803.8 1516.6Z" fill="#021f37" stroke="#021f37"></path><path d="M1909.9 1528.6L2000 1432.4L1849.9 1430.4Z" fill="#021527" stroke="#021527"></path><path d="M1923.9 1786.8L1859.9 1642.7L1810.8 1666.7Z" fill="#003459" stroke="#003459"></path><path d="M0 1310.3L138.1 1328.3L149.1 1197.2Z" fill="#012d4d" stroke="#012d4d"></path><path d="M196.2 1410.4L235.2 1553.6L341.3 1451.4Z" fill="#013053" stroke="#013053"></path><path d="M137.1 1525.6L235.2 1553.6L196.2 1410.4Z" fill="#001122" stroke="#001122"></path><path d="M969 0L906.9 134.1L986 110.1Z" fill="#021527" stroke="#021527"></path><path d="M872.9 0L753.8 88.1L906.9 134.1Z" fill="#012947" stroke="#012947"></path><path d="M1573.6 93.1L1529.6 188.2L1631.7 260.2Z" fill="#021527" stroke="#021527"></path><path d="M1529.6 188.2L1449.4 99.1L1417.4 256.2Z" fill="#021f37" stroke="#021f37"></path><path d="M1252.2 0L1150.1 147.1L1229.2 124.1Z" fill="#02223c" stroke="#02223c"></path><path d="M2000 1575.6L2000 1432.4L1909.9 1528.6Z" fill="#02223c" stroke="#02223c"></path><path d="M235.2 1553.6L306.3 1663.7L343.3 1571.6Z" fill="#02223c" stroke="#02223c"></path><path d="M436.4 237.2L456.4 320.3L530.6 247.2Z" fill="#001122" stroke="#001122"></path><path d="M436.4 237.2L319.3 372.3L456.4 320.3Z" fill="#003459" stroke="#003459"></path><path d="M456.4 320.3L319.3 372.3L350.3 443.4Z" fill="#021527" stroke="#021527"></path><path d="M250.2 412.4L190.2 550.6L325.3 545.6Z" fill="#02223c" stroke="#02223c"></path><path d="M221.2 649.7L144.1 661.7L241.2 794.8Z" fill="#003459" stroke="#003459"></path><path d="M190.2 550.6L221.2 649.7L325.3 545.6Z" fill="#022642" stroke="#022642"></path><path d="M1193.2 2000L1365.3 2000L1232.2 1881.9Z" fill="#02223c" stroke="#02223c"></path><path d="M1469.4 1889.9L1594.6 2000L1547.6 1852.9Z" fill="#02223c" stroke="#02223c"></path><path d="M1699.7 1919.9L1738.8 1806.8L1699.7 1780.8Z" fill="#012947" stroke="#012947"></path><path d="M629.7 2000L797.8 2000L699.7 1887.9Z" fill="#02223c" stroke="#02223c"></path><path d="M144.1 661.7L95.1 813.8L241.2 794.8Z" fill="#022642" stroke="#022642"></path><path d="M118.1 856.9L0 972L134.1 1013Z" fill="#012947" stroke="#012947"></path><path d="M100.1 1456.4L196.2 1410.4L138.1 1328.3Z" fill="#001122" stroke="#001122"></path><path d="M250.2 412.4L325.3 545.6L350.3 443.4Z" fill="#013053" stroke="#013053"></path><path d="M1699.7 1919.9L1699.7 1780.8L1547.6 1852.9Z" fill="#012947" stroke="#012947"></path><path d="M1699.7 1780.8L1738.8 1806.8L1810.8 1666.7Z" fill="#013053" stroke="#013053"></path><path d="M453.4 81.1L436.4 237.2L530.6 247.2Z" fill="#013053" stroke="#013053"></path><path d="M2000 442.4L1906.9 417.4L1882.9 519.6Z" fill="#012947" stroke="#012947"></path><path d="M1763.8 331.3L1793.8 198.2L1687.7 309.3Z" fill="#003459" stroke="#003459"></path><path d="M1252.2 0L1229.2 124.1L1320.3 121.1Z" fill="#012d4d" stroke="#012d4d"></path><path d="M451.4 1865.9L546.6 1772.8L455.4 1786.8Z" fill="#021f37" stroke="#021f37"></path><path d="M451.4 1865.9L527.6 1896.9L546.6 1772.8Z" fill="#02223c" stroke="#02223c"></path><path d="M666.7 0L640.7 97.1L753.8 88.1Z" fill="#02223c" stroke="#02223c"></path><path d="M753.8 88.1L640.7 97.1L683.7 202.2Z" fill="#012947" stroke="#012947"></path><path d="M1074.1 0L969 0L986 110.1Z" fill="#021527" stroke="#021527"></path><path d="M1365.3 2000L1449.4 2000L1371.3 1890.9Z" fill="#022642" stroke="#022642"></path><path d="M252.2 313.3L250.2 412.4L319.3 372.3Z" fill="#021b31" stroke="#021b31"></path><path d="M319.3 372.3L250.2 412.4L350.3 443.4Z" fill="#012d4d" stroke="#012d4d"></path><path d="M1906.9 417.4L1852.9 327.3L1766.8 475.4Z" fill="#013053" stroke="#013053"></path><path d="M1314.3 0L1252.2 0L1320.3 121.1Z" fill="#001122" stroke="#001122"></path><path d="M2000 662.7L2000 519.6L1901.9 650.7Z" fill="#012947" stroke="#012947"></path><path d="M1906.9 417.4L2000 326.3L1852.9 327.3Z" fill="#021527" stroke="#021527"></path><path d="M337.3 1768.8L451.4 1865.9L455.4 1786.8Z" fill="#012d4d" stroke="#012d4d"></path><path d="M192.2 1738.8L337.3 1768.8L306.3 1663.7Z" fill="#021527" stroke="#021527"></path><path d="M306.3 1663.7L337.3 1768.8L442.4 1669.7Z" fill="#012947" stroke="#012947"></path><path d="M969 0L872.9 0L906.9 134.1Z" fill="#013053" stroke="#013053"></path><path d="M1428.4 0L1314.3 0L1320.3 121.1Z" fill="#03182c" stroke="#03182c"></path><path d="M1428.4 0L1320.3 121.1L1449.4 99.1Z" fill="#013053" stroke="#013053"></path><path d="M1681.7 106.1L1573.6 93.1L1631.7 260.2Z" fill="#001122" stroke="#001122"></path><path d="M250.2 412.4L144.1 538.6L190.2 550.6Z" fill="#022642" stroke="#022642"></path><path d="M190.2 550.6L144.1 538.6L144.1 661.7Z" fill="#012947" stroke="#012947"></path><path d="M0 790.8L0 852.9L95.1 813.8Z" fill="#013053" stroke="#013053"></path><path d="M2000 1668.7L2000 1575.6L1859.9 1642.7Z" fill="#013053" stroke="#013053"></path><path d="M1859.9 1642.7L2000 1575.6L1909.9 1528.6Z" fill="#021b31" stroke="#021b31"></path><path d="M872.9 0L802.8 0L753.8 88.1Z" fill="#03182c" stroke="#03182c"></path><path d="M100.1 1456.4L137.1 1525.6L196.2 1410.4Z" fill="#003459" stroke="#003459"></path><path d="M235.2 1553.6L199.2 1629.7L306.3 1663.7Z" fill="#021f37" stroke="#021f37"></path><path d="M100.1 1456.4L138.1 1328.3L0 1310.3Z" fill="#012d4d" stroke="#012d4d"></path><path d="M137.1 1525.6L199.2 1629.7L235.2 1553.6Z" fill="#021527" stroke="#021527"></path><path d="M527.6 1896.9L629.7 2000L699.7 1887.9Z" fill="#012d4d" stroke="#012d4d"></path><path d="M583.6 2000L629.7 2000L527.6 1896.9Z" fill="#012d4d" stroke="#012d4d"></path><path d="M0 1184.2L149.1 1197.2L126.1 1112.1Z" fill="#012947" stroke="#012947"></path><path d="M666.7 0L568.6 84.1L640.7 97.1Z" fill="#02223c" stroke="#02223c"></path><path d="M640.7 97.1L568.6 84.1L530.6 247.2Z" fill="#001122" stroke="#001122"></path><path d="M352.3 191.2L252.2 313.3L319.3 372.3Z" fill="#012947" stroke="#012947"></path><path d="M1594.6 2000L1699.7 1919.9L1547.6 1852.9Z" fill="#022642" stroke="#022642"></path><path d="M1738.8 1806.8L1813.8 1858.9L1810.8 1666.7Z" fill="#001122" stroke="#001122"></path><path d="M0 852.9L118.1 856.9L95.1 813.8Z" fill="#02223c" stroke="#02223c"></path><path d="M0 852.9L0 972L118.1 856.9Z" fill="#003459" stroke="#003459"></path><path d="M1583.6 0L1428.4 0L1449.4 99.1Z" fill="#02223c" stroke="#02223c"></path><path d="M2000 519.6L2000 442.4L1882.9 519.6Z" fill="#013053" stroke="#013053"></path><path d="M1852.9 327.3L1793.8 198.2L1763.8 331.3Z" fill="#021527" stroke="#021527"></path><path d="M0 972L0 1139.1L134.1 1013Z" fill="#02223c" stroke="#02223c"></path><path d="M429.4 2000L583.6 2000L527.6 1896.9Z" fill="#03182c" stroke="#03182c"></path><path d="M429.4 2000L527.6 1896.9L451.4 1865.9Z" fill="#022642" stroke="#022642"></path><path d="M1915.9 218.2L1793.8 198.2L1852.9 327.3Z" fill="#013053" stroke="#013053"></path><path d="M1573.6 93.1L1583.6 0L1449.4 99.1Z" fill="#022642" stroke="#022642"></path><path d="M0 1139.1L0 1184.2L126.1 1112.1Z" fill="#003459" stroke="#003459"></path><path d="M1449.4 2000L1594.6 2000L1469.4 1889.9Z" fill="#013053" stroke="#013053"></path><path d="M352.3 191.2L319.3 372.3L436.4 237.2Z" fill="#03182c" stroke="#03182c"></path><path d="M250.2 412.4L106.1 405.4L144.1 538.6Z" fill="#001122" stroke="#001122"></path><path d="M0 790.8L95.1 813.8L144.1 661.7Z" fill="#022642" stroke="#022642"></path><path d="M1793.8 198.2L1681.7 106.1L1631.7 260.2Z" fill="#001122" stroke="#001122"></path><path d="M1851.9 1877.9L1813.8 1858.9L1756.8 2000Z" fill="#021b31" stroke="#021b31"></path><path d="M1699.7 1919.9L1813.8 1858.9L1738.8 1806.8Z" fill="#02223c" stroke="#02223c"></path><path d="M0 632.7L0 790.8L144.1 661.7Z" fill="#021f37" stroke="#021f37"></path><path d="M0 632.7L144.1 661.7L144.1 538.6Z" fill="#021527" stroke="#021527"></path><path d="M802.8 0L666.7 0L753.8 88.1Z" fill="#003459" stroke="#003459"></path><path d="M453.4 81.1L352.3 191.2L436.4 237.2Z" fill="#012d4d" stroke="#012d4d"></path><path d="M453.4 81.1L530.6 247.2L568.6 84.1Z" fill="#003459" stroke="#003459"></path><path d="M1923.9 1786.8L2000 1668.7L1859.9 1642.7Z" fill="#003459" stroke="#003459"></path><path d="M0 1184.2L0 1310.3L149.1 1197.2Z" fill="#021f37" stroke="#021f37"></path><path d="M118.1 1739.8L199.2 1629.7L75.1 1686.7Z" fill="#02223c" stroke="#02223c"></path><path d="M118.1 1739.8L192.2 1738.8L199.2 1629.7Z" fill="#022642" stroke="#022642"></path><path d="M1594.6 2000L1655.7 2000L1699.7 1919.9Z" fill="#003459" stroke="#003459"></path><path d="M1813.8 1858.9L1923.9 1786.8L1810.8 1666.7Z" fill="#012d4d" stroke="#012d4d"></path><path d="M1851.9 1877.9L1923.9 1786.8L1813.8 1858.9Z" fill="#021f37" stroke="#021f37"></path><path d="M478.4 0L453.4 81.1L568.6 84.1Z" fill="#012947" stroke="#012947"></path><path d="M199.2 1629.7L192.2 1738.8L306.3 1663.7Z" fill="#003459" stroke="#003459"></path><path d="M337.3 1768.8L293.3 1878.9L451.4 1865.9Z" fill="#012d4d" stroke="#012d4d"></path><path d="M0 1585.6L137.1 1525.6L100.1 1456.4Z" fill="#003459" stroke="#003459"></path><path d="M1756.8 2000L1813.8 1858.9L1699.7 1919.9Z" fill="#021f37" stroke="#021f37"></path><path d="M1642.7 0L1573.6 93.1L1681.7 106.1Z" fill="#013053" stroke="#013053"></path><path d="M1642.7 0L1583.6 0L1573.6 93.1Z" fill="#02223c" stroke="#02223c"></path><path d="M0 519.6L0 632.7L144.1 538.6Z" fill="#012d4d" stroke="#012d4d"></path><path d="M2000 442.4L2000 326.3L1906.9 417.4Z" fill="#003459" stroke="#003459"></path><path d="M1793.8 0L1642.7 0L1681.7 106.1Z" fill="#003459" stroke="#003459"></path><path d="M252.2 313.3L106.1 405.4L250.2 412.4Z" fill="#013053" stroke="#013053"></path><path d="M102.1 314.3L106.1 405.4L252.2 313.3Z" fill="#012947" stroke="#012947"></path><path d="M260.2 186.2L252.2 313.3L352.3 191.2Z" fill="#021b31" stroke="#021b31"></path><path d="M248.2 1857.9L293.3 1878.9L337.3 1768.8Z" fill="#021b31" stroke="#021b31"></path><path d="M0 1310.3L0 1446.4L100.1 1456.4Z" fill="#001122" stroke="#001122"></path><path d="M666.7 0L545.6 0L568.6 84.1Z" fill="#03182c" stroke="#03182c"></path><path d="M2000 326.3L1915.9 218.2L1852.9 327.3Z" fill="#012947" stroke="#012947"></path><path d="M293.3 1878.9L429.4 2000L451.4 1865.9Z" fill="#021f37" stroke="#021f37"></path><path d="M1804.8 96.1L1681.7 106.1L1793.8 198.2Z" fill="#022642" stroke="#022642"></path><path d="M303.3 0L310.3 145.1L453.4 81.1Z" fill="#021b31" stroke="#021b31"></path><path d="M453.4 81.1L310.3 145.1L352.3 191.2Z" fill="#021b31" stroke="#021b31"></path><path d="M192.2 1738.8L248.2 1857.9L337.3 1768.8Z" fill="#012d4d" stroke="#012d4d"></path><path d="M293.3 1878.9L306.3 2000L429.4 2000Z" fill="#03182c" stroke="#03182c"></path><path d="M150.1 1922.9L248.2 1857.9L192.2 1738.8Z" fill="#021f37" stroke="#021f37"></path><path d="M310.3 145.1L260.2 186.2L352.3 191.2Z" fill="#02223c" stroke="#02223c"></path><path d="M1916.9 114.1L1804.8 96.1L1793.8 198.2Z" fill="#021527" stroke="#021527"></path><path d="M1655.7 2000L1756.8 2000L1699.7 1919.9Z" fill="#021b31" stroke="#021b31"></path><path d="M2000 1917.9L2000 1780.8L1923.9 1786.8Z" fill="#001122" stroke="#001122"></path><path d="M2000 1917.9L1923.9 1786.8L1851.9 1877.9Z" fill="#021527" stroke="#021527"></path><path d="M1923.9 1786.8L2000 1780.8L2000 1668.7Z" fill="#02223c" stroke="#02223c"></path><path d="M545.6 0L478.4 0L568.6 84.1Z" fill="#03182c" stroke="#03182c"></path><path d="M310.3 145.1L231.2 116.1L260.2 186.2Z" fill="#013053" stroke="#013053"></path><path d="M0 460.4L144.1 538.6L106.1 405.4Z" fill="#013053" stroke="#013053"></path><path d="M0 460.4L0 519.6L144.1 538.6Z" fill="#001122" stroke="#001122"></path><path d="M75.1 1686.7L199.2 1629.7L137.1 1525.6Z" fill="#012d4d" stroke="#012d4d"></path><path d="M0 1585.6L75.1 1686.7L137.1 1525.6Z" fill="#021b31" stroke="#021b31"></path><path d="M114.1 199.2L252.2 313.3L260.2 186.2Z" fill="#021527" stroke="#021527"></path><path d="M114.1 199.2L102.1 314.3L252.2 313.3Z" fill="#021b31" stroke="#021b31"></path><path d="M0 1446.4L0 1585.6L100.1 1456.4Z" fill="#001122" stroke="#001122"></path><path d="M2000 326.3L2000 226.2L1915.9 218.2Z" fill="#03182c" stroke="#03182c"></path><path d="M1915.9 218.2L1916.9 114.1L1793.8 198.2Z" fill="#02223c" stroke="#02223c"></path><path d="M0 304.3L0 460.4L106.1 405.4Z" fill="#02223c" stroke="#02223c"></path><path d="M2000 226.2L1916.9 114.1L1915.9 218.2Z" fill="#012947" stroke="#012947"></path><path d="M1804.8 96.1L1793.8 0L1681.7 106.1Z" fill="#013053" stroke="#013053"></path><path d="M1756.8 2000L1856.9 2000L1851.9 1877.9Z" fill="#013053" stroke="#013053"></path><path d="M238.2 2000L248.2 1857.9L150.1 1922.9Z" fill="#03182c" stroke="#03182c"></path><path d="M238.2 2000L293.3 1878.9L248.2 1857.9Z" fill="#012947" stroke="#012947"></path><path d="M238.2 2000L306.3 2000L293.3 1878.9Z" fill="#021527" stroke="#021527"></path><path d="M0 1789.8L118.1 1739.8L75.1 1686.7Z" fill="#012947" stroke="#012947"></path><path d="M0 1585.6L0 1644.7L75.1 1686.7Z" fill="#03182c" stroke="#03182c"></path><path d="M303.3 0L231.2 116.1L310.3 145.1Z" fill="#013053" stroke="#013053"></path><path d="M102.1 314.3L0 304.3L106.1 405.4Z" fill="#021f37" stroke="#021f37"></path><path d="M1895.9 0L1793.8 0L1804.8 96.1Z" fill="#022642" stroke="#022642"></path><path d="M1856.9 2000L2000 1917.9L1851.9 1877.9Z" fill="#021b31" stroke="#021b31"></path><path d="M231.2 116.1L114.1 199.2L260.2 186.2Z" fill="#021527" stroke="#021527"></path><path d="M150.1 1922.9L192.2 1738.8L118.1 1739.8Z" fill="#012d4d" stroke="#012d4d"></path><path d="M478.4 0L303.3 0L453.4 81.1Z" fill="#021f37" stroke="#021f37"></path><path d="M231.2 116.1L131.1 122.1L114.1 199.2Z" fill="#021527" stroke="#021527"></path><path d="M0 1876.9L150.1 1922.9L118.1 1739.8Z" fill="#003459" stroke="#003459"></path><path d="M114.1 199.2L0 304.3L102.1 314.3Z" fill="#003459" stroke="#003459"></path><path d="M0 197.2L0 304.3L114.1 199.2Z" fill="#03182c" stroke="#03182c"></path><path d="M1916.9 114.1L1895.9 0L1804.8 96.1Z" fill="#021527" stroke="#021527"></path><path d="M2000 79.1L1895.9 0L1916.9 114.1Z" fill="#03182c" stroke="#03182c"></path><path d="M235.2 0L131.1 122.1L231.2 116.1Z" fill="#012d4d" stroke="#012d4d"></path><path d="M2000 226.2L2000 79.1L1916.9 114.1Z" fill="#021f37" stroke="#021f37"></path><path d="M0 1644.7L0 1789.8L75.1 1686.7Z" fill="#02223c" stroke="#02223c"></path><path d="M303.3 0L235.2 0L231.2 116.1Z" fill="#021527" stroke="#021527"></path><path d="M1856.9 2000L2000 2000L2000 1917.9Z" fill="#012947" stroke="#012947"></path><path d="M0 102.1L114.1 199.2L131.1 122.1Z" fill="#012947" stroke="#012947"></path><path d="M0 102.1L0 197.2L114.1 199.2Z" fill="#003459" stroke="#003459"></path><path d="M0 1789.8L0 1876.9L118.1 1739.8Z" fill="#021b31" stroke="#021b31"></path><path d="M150.1 1922.9L91.1 2000L238.2 2000Z" fill="#03182c" stroke="#03182c"></path><path d="M2000 79.1L2000 0L1895.9 0Z" fill="#021b31" stroke="#021b31"></path><path d="M0 1876.9L91.1 2000L150.1 1922.9Z" fill="#013053" stroke="#013053"></path><path d="M235.2 0L118.1 0L131.1 122.1Z" fill="#02223c" stroke="#02223c"></path><path d="M118.1 0L0 102.1L131.1 122.1Z" fill="#013053" stroke="#013053"></path><path d="M0 1876.9L0 2000L91.1 2000Z" fill="#03182c" stroke="#03182c"></path><path d="M118.1 0L0 0L0 102.1Z" fill="#003459" stroke="#003459"></path></g></svg>